<?xml version="1.0" standalone="no"?>
<!DOCTYPE svg PUBLIC "-//W3C//DTD SVG 20010904//EN"
 "http://www.w3.org/TR/2001/REC-SVG-20010904/DTD/svg10.dtd">
<svg version="1.0" xmlns="http://www.w3.org/2000/svg"
 width="500.000000pt" height="136.000000pt" viewBox="0 0 500.000000 136.000000"
 preserveAspectRatio="xMidYMid meet">

<g transform="translate(0.000000,136.000000) scale(0.100000,-0.100000)"
fill="#000000" stroke="none">
<path d="M0 680 l0 -680 2500 0 2500 0 0 680 0 680 -2500 0 -2500 0 0 -680z
m4920 215 l0 -425 -50 0 -50 0 0 375 0 375 -370 0 -370 0 0 50 0 50 420 0 420
0 0 -425z m-4180 -35 l0 -50 -80 0 -80 0 0 -65 0 -65 115 0 115 0 0 -50 0 -50
-115 0 -115 0 0 -116 0 -115 -52 3 -53 3 -3 265 c-1 146 0 270 3 277 3 10 39
13 135 13 l130 0 0 -50z m340 -179 l0 -230 28 -3 c25 -3 27 -7 30 -50 l3 -48
-121 0 -121 0 3 48 c3 45 4 47 36 50 l32 3 0 230 0 229 55 0 55 0 0 -229z
m255 54 l0 -170 -52 -3 -53 -3 0 176 0 176 53 -3 52 -3 0 -170z m503 -31 l102
-206 24 53 c13 30 56 122 94 204 l70 150 56 3 56 3 -2 -213 -3 -213 -52 -3
-53 -3 -1 88 0 88 -72 -142 -72 -143 -47 0 -47 0 -73 142 -73 143 -3 -153 -3
-152 -54 0 -55 0 0 280 0 280 53 0 53 0 102 -206z m672 56 c29 -83 55 -148 57
-146 2 2 19 46 37 97 l34 94 51 3 c37 2 51 -1 51 -10 0 -22 -166 -443 -174
-443 -8 0 -216 529 -216 547 0 5 24 8 53 8 l53 0 54 -150z m600 100 l0 -50
-80 0 -80 0 0 -65 0 -65 115 0 115 0 0 -50 0 -50 -115 0 -115 0 0 -60 0 -59
78 -3 77 -3 3 -52 3 -53 -135 0 -136 0 0 280 0 280 135 0 135 0 0 -50z m450
28 c24 -13 52 -35 63 -49 24 -34 33 -106 17 -152 -10 -33 -53 -80 -81 -89 -7
-2 8 -45 40 -116 28 -61 51 -116 51 -122 0 -5 -24 -10 -54 -10 l-53 0 -53 115
c-50 107 -56 115 -82 115 l-28 0 0 -115 0 -115 -55 0 -55 0 0 165 0 165 113 0
c127 0 157 11 157 58 0 58 -34 72 -171 72 l-99 0 0 50 0 50 123 0 c108 0 128
-3 167 -22z m446 3 c49 -22 83 -66 86 -112 3 -34 3 -34 -45 -37 -42 -3 -48 -1
-57 22 -12 33 -44 49 -81 41 -32 -7 -49 -31 -49 -69 0 -31 34 -56 75 -56 41 0
114 -38 139 -73 30 -40 30 -144 0 -184 -21 -30 -96 -73 -126 -73 -15 0 -18 9
-18 49 0 41 4 51 20 56 33 10 52 48 41 78 -12 31 -32 42 -91 51 -136 21 -194
164 -107 263 56 64 134 80 213 44z m454 -31 l0 -50 -80 0 -80 0 0 -65 0 -65
115 0 115 0 0 -50 0 -50 -115 0 -115 0 0 -60 0 -60 80 0 80 0 0 -55 0 -56
-132 3 -133 3 -3 265 c-1 146 0 270 3 277 3 10 39 13 135 13 l130 0 0 -50z
m-4280 -340 l0 -380 370 0 370 0 0 -50 0 -50 -420 0 -420 0 0 430 0 430 50 0
50 0 0 -380z m1358 -117 l3 -53 -155 0 -156 0 0 55 0 56 153 -3 152 -3 3 -52z"/>
</g>
</svg>
